# xmcd
#
# Track frame offsets:
#	150
#	16812
#	35355
#	52375
#	73857
#	88005
#	105125
#	126662
#	145355
#	177300
#	200162
#	223575
#	244800
#	258252
#
# Disc length: 3611 seconds
#
# Revision: 1
# Processed by: cddbd v1.4PL0 Copyright (c) Steve Scherf et al.
# Submitted via: audiograbber 1.81.01
#
DISCID=d60e190e
DTITLE=Howlin' Wolf - The Gold Collection
DYEAR=1991
DGENRE=Blues
TTITLE0=Shake It For Me
TTITLE1=Love Me
TTITLE2=Dust My Broom
TTITLE3=I Didn't Mean To Hurt Your Feelings
TTITLE4=Rockin' The Blues
TTITLE5=All My Life
TTITLE6=Goin' Down Slow
TTITLE7=Howlin' For My Darlin'
TTITLE8=Fourty Four
TTITLE9=Little Red Rooster
TTITLE10=Evil
TTITLE11=Blind Love
TTITLE12=My Baby Walked Off
TTITLE13=Bluebird
EXTD=
EXTT0=
EXTT1=
EXTT2=
EXTT3=
EXTT4=
EXTT5=
EXTT6=
EXTT7=
EXTT8=
EXTT9=
EXTT10=
EXTT11=
EXTT12=
EXTT13=
PLAYORDER=
